<svg xmlns="http://www.w3.org/2000/svg" enable-background="new 0 0 24 24" viewBox="0 0 24 24" id="playstation"><path d="M.75 16C.336 16 0 15.664 0 15.25v-2c0-.414.336-.75.75-.75H6c.413 0 .75-.337.75-.75S6.413 11 6 11H.75C.336 11 0 10.664 0 10.25S.336 9.5.75 9.5H6c1.24 0 2.25 1.01 2.25 2.25S7.24 14 6 14H1.5v1.25C1.5 15.664 1.164 16 .75 16zM10.28 16H7.75C7.336 16 7 15.664 7 15.25s.336-.75.75-.75h2.53c.259 0 .47-.211.47-.47V11.47c0-1.086.884-1.97 1.97-1.97h2.53c.414 0 .75.336.75.75S15.664 11 15.25 11h-2.53c-.259 0-.47.211-.47.47v2.561C12.25 15.116 11.366 16 10.28 16zM22 16h-4.5c-.414 0-.75-.336-.75-.75s.336-.75.75-.75H22c.275 0 .5-.225.5-.5s-.225-.5-.5-.5h-4.5c-.414 0-.75-.336-.75-.75S17.086 12 17.5 12H22c1.103 0 2 .897 2 2S23.103 16 22 16z"></path><path d="M22,13.5h-4.5c-0.414,0-0.75-0.336-0.75-0.75S17.086,12,17.5,12H22c0.275,0,0.5-0.225,0.5-0.5S22.275,11,22,11h-4.5c-0.414,0-0.75-0.336-0.75-0.75S17.086,9.5,17.5,9.5H22c1.103,0,2,0.897,2,2S23.103,13.5,22,13.5z"></path></svg>