<svg xmlns="http://www.w3.org/2000/svg" enable-background="new 0 0 24 24" viewBox="0 0 24 24" id="playstation"><path d="M.75 16C.336 16 0 15.664 0 15.25v-2c0-.414.336-.75.75-.75H6c.413 0 .75-.337.75-.75S6.413 11 6 11H.75C.336 11 0 10.664 0 10.25S.336 9.5.75 9.5H6c1.24 0 2.25 1.01 2.25 2.25S7.24 14 6 14H1.5v1.25C1.5 15.664 1.164 16 .75 16zM10.28 16H7.5c-.414 0-.75-.336-.75-.75S7.086 14.5 7.5 14.5h2.78c.259 0 .47-.211.47-.47V11.47c0-1.086.884-1.97 1.97-1.97h2.78c.414 0 .75.336.75.75S15.914 11 15.5 11h-2.78c-.259 0-.47.211-.47.47v2.561C12.25 15.116 11.366 16 10.28 16zM22.25 16c-.414 0-.75-.336-.75-.75V15h-5.979c-.338 0-.634-.226-.724-.552-.089-.325.05-.67.341-.843l6.729-4c.23-.138.52-.142.754-.008S23 9.98 23 10.25v3.25h.25c.414 0 .75.336.75.75S23.664 15 23.25 15H23v.25C23 15.664 22.664 16 22.25 16zM18.251 13.5H21.5v-1.932L18.251 13.5z"></path></svg>