<svg xmlns="http://www.w3.org/2000/svg"
    xmlns:xlink="http://www.w3.org/1999/xlink" viewBox="0,0,256,256" width="500px" height="500px" fill-rule="nonzero">
    <g fill="#ffffff" fill-rule="nonzero" stroke="none" stroke-width="1" stroke-linecap="butt" stroke-linejoin="miter" stroke-miterlimit="10" stroke-dasharray="" stroke-dashoffset="0" text-anchor="none" style="mix-blend-mode: normal">
        <g transform="scale(5.12,5.12)">
            <path d="M36,13c-1.65234,0 -3,1.34766 -3,3c0,1.65234 1.34766,3 3,3c1.65234,0 3,-1.34766 3,-3c0,-1.65234 -1.34766,-3 -3,-3zM45,13c-1.65234,0 -3,1.34766 -3,3c0,1.65234 1.34766,3 3,3c1.65234,0 3,-1.34766 3,-3c0,-1.65234 -1.34766,-3 -3,-3zM15.90625,14c0,0 -0.08984,0.01172 -0.21875,0.03125c-0.22266,0.01953 -0.4375,0.07813 -0.65625,0.1875c-0.69531,0.29297 -1.62109,0.99219 -2.03125,2.6875c-0.41797,1.85547 -0.39844,0.82031 -3,11.90625l-3.84375,-13.875c-0.11328,-0.44141 -0.51562,-0.75 -0.96875,-0.75h-3.375c-0.3125,0 -0.625,0.15625 -0.8125,0.40625c-0.1875,0.25 -0.24219,0.57422 -0.15625,0.875l4.6875,16.34375c0.27734,1.47656 1.51563,4.1875 4.28125,4.1875c2.80078,0 4.01172,-2.75 4.25,-4.125l1.9375,-7.15625l1.90625,7.0625c0.25781,1.46094 1.48047,4.21875 4.28125,4.21875c2.76563,0 4.00391,-2.71094 4.28125,-4.1875l4.6875,-16.34375c0.08594,-0.30078 0.03125,-0.625 -0.15625,-0.875c-0.1875,-0.25 -0.5,-0.40625 -0.8125,-0.40625h-3.4375c-0.45312,0 -0.85547,0.30859 -0.96875,0.75l-3.8125,13.96875c-0.07422,-0.27734 -0.15625,-0.59766 -0.25,-0.9375c-0.64844,-2.44531 -2.25781,-8.58984 -2.8125,-10.96875c-0.50391,-2.16406 -1.85547,-2.76953 -2.5625,-2.9375c-0.03906,-0.01172 -0.05469,-0.02344 -0.09375,-0.03125c-0.20312,-0.03906 -0.34375,-0.03125 -0.34375,-0.03125zM34,21c-0.55469,0 -1,0.44922 -1,1v13c0,0.55469 0.44531,1 1,1h4c0.55469,0 1,-0.44531 1,-1v-13c0,-0.55078 -0.44531,-1 -1,-1zM43,21c-0.55469,0 -1,0.44922 -1,1v13c0,0.55469 0.44531,1 1,1h4c0.55469,0 1,-0.44531 1,-1v-13c0,-0.55078 -0.44531,-1 -1,-1z"></path>
        </g>
    </g>
</svg>