<svg xmlns="http://www.w3.org/2000/svg"
    xmlns:xlink="http://www.w3.org/1999/xlink" viewBox="0,0,256,256" width="500px" height="500px" fill-rule="nonzero">
    <g fill="#ffffff" fill-rule="nonzero" stroke="none" stroke-width="1" stroke-linecap="butt" stroke-linejoin="miter" stroke-miterlimit="10" stroke-dasharray="" stroke-dashoffset="0" text-anchor="none" style="mix-blend-mode: normal">
        <g transform="scale(5.12,5.12)">
            <path d="M16,3c-6.62,0 -12,5.38 -12,12v20c0,6.62 5.38,12 12,12h20c6.62,0 12,-5.38 12,-12v-20c0,-6.62 -5.38,-12 -12,-12zM12.61914,18.07031c0.7,0 1.2207,0.50016 1.2207,1.16016c0,0.65 -0.5207,1.15039 -1.2207,1.15039c-0.71,0 -1.22852,-0.50039 -1.22852,-1.15039c0,-0.66 0.51852,-1.16016 1.22852,-1.16016zM23.03906,18.64063c3.65,0 5.90039,2.54867 5.90039,6.63867c0,4.08 -2.23039,6.65039 -5.90039,6.65039c-3.69,0 -5.92969,-2.56039 -5.92969,-6.65039c0,-4.1 2.28969,-6.63867 5.92969,-6.63867zM35.9707,18.64063c2.57,0 4.44836,1.49867 4.56836,3.63867h-1.91992c-0.19,-1.17 -1.19969,-1.89844 -2.67969,-1.89844c-1.56,0 -2.58984,0.73867 -2.58984,1.88867c0,0.9 0.66031,1.42055 2.32031,1.81055l1.39063,0.33984c2.61,0.61 3.67969,1.66031 3.67969,3.57031c0,2.43 -1.88063,3.94922 -4.89062,3.94922c-2.81,0 -4.69984,-1.44875 -4.83984,-3.71875h1.95117c0.17,1.2 1.34906,1.96875 3.03906,1.96875c1.58,0 2.74023,-0.81922 2.74023,-1.94922c0,-0.96 -0.73016,-1.53945 -2.41016,-1.93945l-1.64062,-0.39062c-2.29,-0.54 -3.33984,-1.64977 -3.33984,-3.50977c0,-2.26 1.85109,-3.75977 4.62109,-3.75977zM23.03906,20.4707c-2.39,0 -3.9082,1.86859 -3.9082,4.80859c0,2.93 1.4682,4.82031 3.9082,4.82031c2.41,0 3.89063,-1.89031 3.89063,-4.82031c0,-2.94 -1.48062,-4.80859 -3.89063,-4.80859zM11.67969,22.06055h1.88086v9.57031h-1.88086z"></path>
        </g>
    </g>
</svg>